<svg width="28" height="28" viewBox="0 0 28 28" fill="none" xmlns="http://www.w3.org/2000/svg">
<path d="M24.2366 21C25.1108 21 25.8061 20.4499 26.4304 19.6807C27.7085 18.106 25.6101 16.8476 24.8098 16.2314C23.9963 15.6049 23.0879 15.25 22.1669 15.1667M21.0002 12.8333C22.6111 12.8333 23.9169 11.5275 23.9169 9.91667C23.9169 8.30584 22.6111 7 21.0002 7" stroke="white" stroke-width="1.75" stroke-linecap="round"/>
<path d="M3.76394 21C2.88976 21 2.19444 20.4499 1.57013 19.6807C0.292095 18.106 2.39044 16.8476 3.19075 16.2314C4.0043 15.6049 4.91267 15.25 5.83366 15.1667M6.41699 12.8333C4.80616 12.8333 3.50033 11.5275 3.50033 9.91667C3.50033 8.30584 4.80616 7 6.41699 7" stroke="white" stroke-width="1.75" stroke-linecap="round"/>
<path d="M9.43143 17.6299C8.23936 18.367 5.11381 19.8721 7.01748 21.7555C7.9474 22.6755 8.9831 23.3335 10.2852 23.3335H17.7154C19.0176 23.3335 20.0532 22.6755 20.9832 21.7555C22.8868 19.8721 19.7613 18.367 18.5692 17.6299C15.7738 15.9014 12.2268 15.9014 9.43143 17.6299Z" stroke="white" stroke-width="1.75" stroke-linecap="round" stroke-linejoin="round"/>
<path d="M18.0837 8.75008C18.0837 11.0052 16.2555 12.8334 14.0003 12.8334C11.7452 12.8334 9.91699 11.0052 9.91699 8.75008C9.91699 6.49492 11.7452 4.66675 14.0003 4.66675C16.2555 4.66675 18.0837 6.49492 18.0837 8.75008Z" stroke="white" stroke-width="1.75"/>
</svg>
