<svg width="20" height="20" viewBox="0 0 20 20" fill="none" xmlns="http://www.w3.org/2000/svg">
<path fill-rule="evenodd" clip-rule="evenodd" d="M11.026 5.23209C11.1269 5.14792 11.2434 5.08447 11.3688 5.04535C11.4943 5.00623 11.6262 4.99221 11.757 5.0041C11.8879 5.01599 12.0151 5.05355 12.1315 5.11463C12.2478 5.17571 12.3509 5.25912 12.435 5.36009L15.768 9.36009C15.8558 9.46044 15.9227 9.57735 15.9646 9.70392C16.0066 9.83049 16.0228 9.96417 16.0123 10.0971C16.0018 10.23 15.9649 10.3595 15.9036 10.478C15.8423 10.5964 15.758 10.7014 15.6556 10.7867C15.5531 10.8721 15.4347 10.9361 15.3071 10.975C15.1796 11.0139 15.0455 11.0269 14.9129 11.0133C14.7803 10.9996 14.6517 10.9595 14.5348 10.8955C14.4178 10.8314 14.3149 10.7445 14.232 10.6401L10.898 6.64009C10.7284 6.43637 10.6465 6.17361 10.6705 5.90959C10.6945 5.64556 10.8224 5.40187 11.026 5.23209Z" fill="#111111"/>
<path fill-rule="evenodd" clip-rule="evenodd" d="M11.026 14.7681C10.8224 14.5983 10.6945 14.3547 10.6705 14.0906C10.6465 13.8266 10.7284 13.5638 10.898 13.3601L14.232 9.36013C14.3149 9.25567 14.4178 9.16885 14.5348 9.10476C14.6517 9.04067 14.7803 9.00062 14.9129 8.98695C15.0455 8.97329 15.1796 8.98629 15.3071 9.02519C15.4347 9.06409 15.5531 9.12811 15.6556 9.21347C15.758 9.29883 15.8423 9.40382 15.9036 9.52225C15.9649 9.64069 16.0018 9.77018 16.0123 9.90311C16.0228 10.036 16.0066 10.1697 15.9646 10.2963C15.9227 10.4229 15.8558 10.5398 15.768 10.6401L12.435 14.6401C12.3509 14.7411 12.2478 14.8245 12.1315 14.8856C12.0151 14.9467 11.8879 14.9842 11.757 14.9961C11.6262 15.008 11.4943 14.994 11.3688 14.9549C11.2434 14.9157 11.1269 14.8523 11.026 14.7681Z" fill="#111111"/>
<path fill-rule="evenodd" clip-rule="evenodd" d="M14 10C14 10.2652 13.8946 10.5196 13.7071 10.7071C13.5196 10.8946 13.2652 11 13 11L5 11C4.73478 11 4.48043 10.8946 4.29289 10.7071C4.10536 10.5196 4 10.2652 4 10C4 9.73478 4.10536 9.48043 4.29289 9.29289C4.48043 9.10536 4.73478 9 5 9L13 9C13.2652 9 13.5196 9.10536 13.7071 9.29289C13.8946 9.48043 14 9.73478 14 10Z" fill="#111111"/>
</svg>
